<svg xmlns="http://www.w3.org/2000/svg" version="1.1" xmlns:xlink="http://www.w3.org/1999/xlink" xmlns:svgjs="http://svgjs.dev/svgjs" viewBox="0 0 800 800" style="background: linear-gradient(90deg, rgba(131,58,180,1) 0%, rgba(253,29,29,1) 0%, rgba(252,176,69,1) 100%);"><circle r="5" cx="17" cy="421" fill="hsl(25, 100%, 59%)" opacity="0.54"></circle><circle r="6.5" cx="110" cy="694" fill="hsl(25, 100%, 59%)" opacity="0.53"></circle><circle r="4" cx="277" cy="769" fill="hsl(28, 100%, 59%)" opacity="0.88"></circle><circle r="7.5" cx="21" cy="61" fill="hsl(23, 100%, 59%)" opacity="0.32"></circle><circle r="7.5" cx="547" cy="449" fill="hsl(20, 100%, 59%)" opacity="0.10"></circle><circle r="3.5" cx="377" cy="17" fill="hsl(32, 100%, 59%)" opacity="0.54"></circle><circle r="5.5" cx="110" cy="237" fill="hsl(25, 100%, 59%)" opacity="0.48"></circle><circle r="9" cx="771" cy="529" fill="hsl(19, 100%, 59%)" opacity="0.84"></circle><circle r="8.5" cx="229" cy="210" fill="hsl(26, 100%, 59%)" opacity="0.70"></circle><circle r="6.5" cx="676" cy="427" fill="hsl(19, 100%, 59%)" opacity="0.94"></circle><circle r="6.5" cx="162" cy="561" fill="hsl(25, 100%, 59%)" opacity="0.95"></circle><circle r="8" cx="498" cy="775" fill="hsl(22, 100%, 59%)" opacity="0.63"></circle><circle r="6.5" cx="32" cy="755" fill="hsl(25, 100%, 59%)" opacity="0.97"></circle><circle r="8" cx="158" cy="599" fill="hsl(25, 100%, 59%)" opacity="0.97"></circle><circle r="6.5" cx="244" cy="748" fill="hsl(27, 100%, 59%)" opacity="0.36"></circle><circle r="6" cx="757" cy="238" fill="hsl(19, 100%, 59%)" opacity="0.22"></circle><circle r="5.5" cx="102" cy="417" fill="hsl(25, 100%, 59%)" opacity="0.70"></circle><circle r="3.5" cx="326" cy="13" fill="hsl(32, 100%, 59%)" opacity="0.48"></circle><circle r="5" cx="46" cy="786" fill="hsl(25, 100%, 59%)" opacity="0.43"></circle><circle r="7" cx="323" cy="528" fill="hsl(28, 100%, 59%)" opacity="0.46"></circle><circle r="6.5" cx="485" cy="338" fill="hsl(23, 100%, 59%)" opacity="0.14"></circle><circle r="6.5" cx="311" cy="697" fill="hsl(28, 100%, 59%)" opacity="0.71"></circle><circle r="5" cx="246" cy="369" fill="hsl(27, 100%, 59%)" opacity="0.80"></circle><circle r="3.5" cx="79" cy="373" fill="hsl(25, 100%, 59%)" opacity="0.48"></circle><circle r="5" cx="454" cy="247" fill="hsl(25, 100%, 59%)" opacity="0.64"></circle><circle r="7" cx="751" cy="118" fill="hsl(27, 100%, 59%)" opacity="0.85"></circle><circle r="6.5" cx="556" cy="501" fill="hsl(19, 100%, 59%)" opacity="0.45"></circle><circle r="6" cx="152" cy="165" fill="hsl(25, 100%, 59%)" opacity="0.33"></circle><circle r="5.5" cx="205" cy="618" fill="hsl(26, 100%, 59%)" opacity="0.60"></circle><circle r="7" cx="96" cy="206" fill="hsl(25, 100%, 59%)" opacity="0.34"></circle><circle r="4.5" cx="92" cy="341" fill="hsl(25, 100%, 59%)" opacity="0.96"></circle><circle r="9" cx="205" cy="573" fill="hsl(26, 100%, 59%)" opacity="0.78"></circle><circle r="6" cx="72" cy="737" fill="hsl(25, 100%, 59%)" opacity="0.40"></circle><circle r="14" cx="564" cy="701" fill="hsl(19, 100%, 59%)" opacity="0.64"></circle><circle r="5.5" cx="376" cy="741" fill="hsl(28, 100%, 59%)" opacity="0.34"></circle><circle r="9" cx="725" cy="261" fill="hsl(19, 100%, 59%)" opacity="0.86"></circle><circle r="10" cx="723" cy="529" fill="hsl(19, 100%, 59%)" opacity="0.43"></circle><circle r="4" cx="446" cy="12" fill="hsl(28, 100%, 59%)" opacity="0.76"></circle><circle r="5" cx="790" cy="616" fill="hsl(19, 100%, 59%)" opacity="0.12"></circle><circle r="8.5" cx="631" cy="516" fill="hsl(18, 100%, 59%)" opacity="0.95"></circle><circle r="6" cx="467" cy="496" fill="hsl(24, 100%, 59%)" opacity="0.64"></circle><circle r="8" cx="690" cy="246" fill="hsl(19, 100%, 59%)" opacity="0.32"></circle><circle r="4.5" cx="491" cy="111" fill="hsl(24, 100%, 59%)" opacity="0.72"></circle><circle r="2.5" cx="351" cy="40" fill="hsl(32, 100%, 59%)" opacity="0.57"></circle><circle r="4.5" cx="373" cy="167" fill="hsl(29, 100%, 59%)" opacity="0.38"></circle><circle r="6.5" cx="425" cy="427" fill="hsl(27, 100%, 59%)" opacity="0.87"></circle><circle r="6" cx="554" cy="144" fill="hsl(21, 100%, 59%)" opacity="0.41"></circle><circle r="8.5" cx="447" cy="771" fill="hsl(25, 100%, 59%)" opacity="0.96"></circle><circle r="8" cx="663" cy="733" fill="hsl(19, 100%, 59%)" opacity="0.18"></circle><circle r="6" cx="566" cy="389" fill="hsl(19, 100%, 59%)" opacity="0.18"></circle><circle r="5" cx="429" cy="275" fill="hsl(26, 100%, 59%)" opacity="0.42"></circle><circle r="7.5" cx="606" cy="58" fill="hsl(22, 100%, 59%)" opacity="0.43"></circle><circle r="4.5" cx="309" cy="34" fill="hsl(30, 100%, 59%)" opacity="0.87"></circle><circle r="8" cx="783" cy="394" fill="hsl(19, 100%, 59%)" opacity="0.76"></circle><circle r="4.5" cx="81" cy="654" fill="hsl(25, 100%, 59%)" opacity="0.24"></circle><circle r="10.5" cx="599" cy="593" fill="hsl(19, 100%, 59%)" opacity="0.24"></circle><circle r="6" cx="697" cy="783" fill="hsl(19, 100%, 59%)" opacity="0.25"></circle><circle r="12.5" cx="575" cy="639" fill="hsl(19, 100%, 59%)" opacity="0.24"></circle><circle r="3.5" cx="432" cy="239" fill="hsl(26, 100%, 59%)" opacity="0.19"></circle><circle r="6" cx="382" cy="136" fill="hsl(30, 100%, 59%)" opacity="0.27"></circle><circle r="5" cx="99" cy="580" fill="hsl(25, 100%, 59%)" opacity="0.95"></circle><circle r="6.5" cx="200" cy="177" fill="hsl(26, 100%, 59%)" opacity="0.50"></circle><circle r="8.5" cx="586" cy="344" fill="hsl(19, 100%, 59%)" opacity="0.39"></circle><circle r="5.5" cx="18" cy="356" fill="hsl(25, 100%, 59%)" opacity="0.55"></circle><circle r="9.5" cx="519" cy="580" fill="hsl(21, 100%, 59%)" opacity="0.55"></circle><circle r="6" cx="132" cy="641" fill="hsl(25, 100%, 59%)" opacity="0.93"></circle><circle r="4" cx="28" cy="668" fill="hsl(25, 100%, 59%)" opacity="0.63"></circle><circle r="8" cx="745" cy="713" fill="hsl(19, 100%, 59%)" opacity="0.65"></circle><circle r="4.5" cx="339" cy="105" fill="hsl(30, 100%, 59%)" opacity="0.48"></circle><circle r="9" cx="509" cy="295" fill="hsl(22, 100%, 59%)" opacity="0.97"></circle><circle r="6.5" cx="284" cy="61" fill="hsl(28, 100%, 59%)" opacity="0.45"></circle><circle r="7" cx="509" cy="365" fill="hsl(22, 100%, 59%)" opacity="0.23"></circle><circle r="9" cx="655" cy="271" fill="hsl(19, 100%, 59%)" opacity="0.41"></circle><circle r="3.5" cx="403" cy="16" fill="hsl(31, 100%, 59%)" opacity="0.86"></circle><circle r="7" cx="285" cy="141" fill="hsl(28, 100%, 59%)" opacity="0.87"></circle><circle r="7" cx="454" cy="527" fill="hsl(25, 100%, 59%)" opacity="0.39"></circle><circle r="4.5" cx="398" cy="179" fill="hsl(28, 100%, 59%)" opacity="0.61"></circle><circle r="8" cx="661" cy="395" fill="hsl(19, 100%, 59%)" opacity="0.92"></circle><circle r="6.5" cx="370" cy="572" fill="hsl(28, 100%, 59%)" opacity="0.19"></circle><circle r="4.5" cx="271" cy="625" fill="hsl(27, 100%, 59%)" opacity="0.34"></circle><circle r="8" cx="354" cy="346" fill="hsl(28, 100%, 59%)" opacity="0.77"></circle><circle r="10" cx="634" cy="236" fill="hsl(18, 100%, 59%)" opacity="0.46"></circle><circle r="9" cx="239" cy="48" fill="hsl(25, 100%, 59%)" opacity="0.49"></circle><circle r="6" cx="180" cy="636" fill="hsl(25, 100%, 59%)" opacity="0.38"></circle><circle r="3" cx="293" cy="783" fill="hsl(28, 100%, 59%)" opacity="0.56"></circle><circle r="6.5" cx="705" cy="58" fill="hsl(26, 100%, 59%)" opacity="0.80"></circle><circle r="10" cx="522" cy="528" fill="hsl(21, 100%, 59%)" opacity="0.26"></circle><circle r="4.5" cx="307" cy="109" fill="hsl(29, 100%, 59%)" opacity="0.94"></circle><circle r="7.5" cx="624" cy="98" fill="hsl(23, 100%, 59%)" opacity="0.90"></circle><circle r="6" cx="715" cy="711" fill="hsl(19, 100%, 59%)" opacity="0.72"></circle><circle r="6" cx="235" cy="159" fill="hsl(26, 100%, 59%)" opacity="0.54"></circle><circle r="6" cx="332" cy="633" fill="hsl(28, 100%, 59%)" opacity="0.94"></circle><circle r="6" cx="32" cy="529" fill="hsl(25, 100%, 59%)" opacity="0.83"></circle><circle r="5.5" cx="578" cy="463" fill="hsl(19, 100%, 59%)" opacity="0.59"></circle><circle r="8.5" cx="752" cy="673" fill="hsl(19, 100%, 59%)" opacity="0.66"></circle><circle r="5" cx="240" cy="602" fill="hsl(27, 100%, 59%)" opacity="0.60"></circle><circle r="7.5" cx="681" cy="184" fill="hsl(20, 100%, 59%)" opacity="0.39"></circle><circle r="4" cx="394" cy="44" fill="hsl(31, 100%, 59%)" opacity="0.94"></circle><circle r="7" cx="151" cy="104" fill="hsl(24, 100%, 59%)" opacity="0.27"></circle><circle r="5.5" cx="733" cy="601" fill="hsl(19, 100%, 59%)" opacity="0.75"></circle><circle r="5" cx="442" cy="81" fill="hsl(28, 100%, 59%)" opacity="0.57"></circle><circle r="4.5" cx="14" cy="382" fill="hsl(25, 100%, 59%)" opacity="0.57"></circle><circle r="6" cx="705" cy="16" fill="hsl(25, 100%, 59%)" opacity="0.91"></circle><circle r="7" cx="362" cy="247" fill="hsl(28, 100%, 59%)" opacity="0.80"></circle><circle r="5.5" cx="169" cy="192" fill="hsl(25, 100%, 59%)" opacity="0.89"></circle><circle r="7.5" cx="282" cy="734" fill="hsl(28, 100%, 59%)" opacity="0.78"></circle><circle r="4" cx="468" cy="79" fill="hsl(26, 100%, 59%)" opacity="0.27"></circle><circle r="4" cx="68" cy="557" fill="hsl(25, 100%, 59%)" opacity="0.46"></circle><circle r="4.5" cx="103" cy="555" fill="hsl(25, 100%, 59%)" opacity="0.86"></circle><circle r="3.5" cx="311" cy="571" fill="hsl(28, 100%, 59%)" opacity="0.76"></circle><circle r="9" cx="204" cy="306" fill="hsl(26, 100%, 59%)" opacity="0.39"></circle><circle r="6" cx="719" cy="780" fill="hsl(19, 100%, 59%)" opacity="0.20"></circle><circle r="8" cx="624" cy="342" fill="hsl(18, 100%, 59%)" opacity="0.97"></circle><circle r="8.5" cx="609" cy="21" fill="hsl(19, 100%, 59%)" opacity="0.69"></circle><circle r="9.5" cx="325" cy="464" fill="hsl(28, 100%, 59%)" opacity="0.26"></circle><circle r="8.5" cx="360" cy="421" fill="hsl(28, 100%, 59%)" opacity="0.93"></circle><circle r="8" cx="759" cy="421" fill="hsl(19, 100%, 59%)" opacity="0.83"></circle><circle r="6" cx="677" cy="108" fill="hsl(25, 100%, 59%)" opacity="0.65"></circle><circle r="9.5" cx="606" cy="675" fill="hsl(18, 100%, 59%)" opacity="0.40"></circle><circle r="4.5" cx="749" cy="791" fill="hsl(19, 100%, 59%)" opacity="0.66"></circle><circle r="6" cx="701" cy="433" fill="hsl(19, 100%, 59%)" opacity="0.69"></circle><circle r="6" cx="421" cy="352" fill="hsl(27, 100%, 59%)" opacity="0.43"></circle><circle r="6" cx="732" cy="757" fill="hsl(19, 100%, 59%)" opacity="0.46"></circle><circle r="8.5" cx="538" cy="213" fill="hsl(20, 100%, 59%)" opacity="0.48"></circle><circle r="6.5" cx="57" cy="220" fill="hsl(25, 100%, 59%)" opacity="0.22"></circle><circle r="6.5" cx="172" cy="132" fill="hsl(25, 100%, 59%)" opacity="0.72"></circle><circle r="7" cx="117" cy="161" fill="hsl(26, 100%, 59%)" opacity="0.64"></circle><circle r="5.5" cx="726" cy="139" fill="hsl(25, 100%, 59%)" opacity="0.94"></circle><circle r="6" cx="278" cy="18" fill="hsl(28, 100%, 59%)" opacity="0.13"></circle><circle r="4" cx="376" cy="210" fill="hsl(28, 100%, 59%)" opacity="0.33"></circle><circle r="6.5" cx="158" cy="662" fill="hsl(25, 100%, 59%)" opacity="0.30"></circle><circle r="6" cx="137" cy="778" fill="hsl(25, 100%, 59%)" opacity="0.67"></circle><circle r="6.5" cx="166" cy="696" fill="hsl(25, 100%, 59%)" opacity="0.75"></circle><circle r="8" cx="507" cy="480" fill="hsl(22, 100%, 59%)" opacity="0.23"></circle><circle r="6.5" cx="46" cy="387" fill="hsl(25, 100%, 59%)" opacity="0.44"></circle><circle r="7" cx="763" cy="739" fill="hsl(19, 100%, 59%)" opacity="0.21"></circle><circle r="13.5" cx="176" cy="38" fill="hsl(21, 100%, 59%)" opacity="0.94"></circle><circle r="6" cx="80" cy="444" fill="hsl(25, 100%, 59%)" opacity="0.26"></circle><circle r="6" cx="124" cy="725" fill="hsl(25, 100%, 59%)" opacity="1.00"></circle><circle r="6" cx="438" cy="618" fill="hsl(25, 100%, 59%)" opacity="0.11"></circle><circle r="3" cx="426" cy="40" fill="hsl(29, 100%, 59%)" opacity="0.53"></circle><circle r="5.5" cx="707" cy="91" fill="hsl(27, 100%, 59%)" opacity="0.46"></circle><circle r="3" cx="477" cy="96" fill="hsl(25, 100%, 59%)" opacity="0.62"></circle><circle r="6.5" cx="218" cy="351" fill="hsl(26, 100%, 59%)" opacity="0.15"></circle><circle r="6" cx="273" cy="673" fill="hsl(27, 100%, 59%)" opacity="0.83"></circle><circle r="9.5" cx="278" cy="202" fill="hsl(28, 100%, 59%)" opacity="0.20"></circle><circle r="3.5" cx="331" cy="51" fill="hsl(31, 100%, 59%)" opacity="0.69"></circle><circle r="4.5" cx="742" cy="12" fill="hsl(26, 100%, 59%)" opacity="0.15"></circle><circle r="5.5" cx="387" cy="641" fill="hsl(28, 100%, 59%)" opacity="0.88"></circle><circle r="5" cx="655" cy="593" fill="hsl(19, 100%, 59%)" opacity="0.51"></circle><circle r="3" cx="427" cy="60" fill="hsl(29, 100%, 59%)" opacity="0.93"></circle><circle r="6" cx="266" cy="308" fill="hsl(27, 100%, 59%)" opacity="0.65"></circle><circle r="9.5" cx="736" cy="486" fill="hsl(19, 100%, 59%)" opacity="0.96"></circle><circle r="9" cx="678" cy="611" fill="hsl(19, 100%, 59%)" opacity="0.10"></circle><circle r="6.5" cx="695" cy="149" fill="hsl(24, 100%, 59%)" opacity="0.73"></circle><circle r="6.5" cx="42" cy="135" fill="hsl(28, 100%, 59%)" opacity="0.20"></circle><circle r="11" cx="43" cy="23" fill="hsl(19, 100%, 59%)" opacity="0.80"></circle><circle r="5" cx="785" cy="44" fill="hsl(28, 100%, 59%)" opacity="0.16"></circle><circle r="7" cx="183" cy="522" fill="hsl(25, 100%, 59%)" opacity="0.32"></circle><circle r="7.5" cx="770" cy="80" fill="hsl(28, 100%, 59%)" opacity="0.41"></circle><circle r="6.5" cx="500" cy="69" fill="hsl(25, 100%, 59%)" opacity="1.00"></circle><circle r="10" cx="707" cy="569" fill="hsl(19, 100%, 59%)" opacity="0.98"></circle><circle r="2.5" cx="7" cy="405" fill="hsl(25, 100%, 59%)" opacity="0.71"></circle><circle r="5.5" cx="114" cy="387" fill="hsl(25, 100%, 59%)" opacity="0.93"></circle><circle r="8.5" cx="778" cy="449" fill="hsl(19, 100%, 59%)" opacity="0.53"></circle><circle r="5" cx="327" cy="773" fill="hsl(28, 100%, 59%)" opacity="0.75"></circle><circle r="3.5" cx="140" cy="552" fill="hsl(25, 100%, 59%)" opacity="0.43"></circle><circle r="3.5" cx="290" cy="574" fill="hsl(28, 100%, 59%)" opacity="0.75"></circle><circle r="7" cx="241" cy="499" fill="hsl(27, 100%, 59%)" opacity="0.69"></circle><circle r="5" cx="108" cy="785" fill="hsl(25, 100%, 59%)" opacity="0.23"></circle><circle r="6" cx="476" cy="576" fill="hsl(23, 100%, 59%)" opacity="0.62"></circle><circle r="8" cx="714" cy="623" fill="hsl(19, 100%, 59%)" opacity="0.94"></circle><circle r="4" cx="403" cy="282" fill="hsl(27, 100%, 59%)" opacity="0.34"></circle><circle r="4.5" cx="157" cy="755" fill="hsl(25, 100%, 59%)" opacity="0.15"></circle><circle r="4.5" cx="66" cy="598" fill="hsl(25, 100%, 59%)" opacity="0.89"></circle><circle r="2" cx="376" cy="66" fill="hsl(31, 100%, 59%)" opacity="0.67"></circle><circle r="8" cx="618" cy="443" fill="hsl(18, 100%, 59%)" opacity="0.28"></circle><circle r="8.5" cx="364" cy="501" fill="hsl(28, 100%, 59%)" opacity="0.61"></circle><circle r="6" cx="576" cy="19" fill="hsl(19, 100%, 59%)" opacity="0.56"></circle><circle r="6" cx="204" cy="133" fill="hsl(25, 100%, 59%)" opacity="0.56"></circle><circle r="7" cx="362" cy="667" fill="hsl(28, 100%, 59%)" opacity="0.99"></circle><circle r="7" cx="309" cy="317" fill="hsl(28, 100%, 59%)" opacity="0.87"></circle><circle r="8" cx="200" cy="724" fill="hsl(25, 100%, 59%)" opacity="0.40"></circle><circle r="5" cx="122" cy="536" fill="hsl(25, 100%, 59%)" opacity="0.24"></circle><circle r="6" cx="37" cy="319" fill="hsl(25, 100%, 59%)" opacity="0.25"></circle><circle r="6.5" cx="133" cy="272" fill="hsl(25, 100%, 59%)" opacity="0.45"></circle><circle r="5" cx="92" cy="471" fill="hsl(25, 100%, 59%)" opacity="0.80"></circle><circle r="5" cx="415" cy="638" fill="hsl(27, 100%, 59%)" opacity="0.65"></circle><circle r="5" cx="369" cy="101" fill="hsl(30, 100%, 59%)" opacity="0.34"></circle><circle r="12" cx="669" cy="539" fill="hsl(19, 100%, 59%)" opacity="0.18"></circle><circle r="4.5" cx="586" cy="439" fill="hsl(19, 100%, 59%)" opacity="0.15"></circle><circle r="9" cx="777" cy="569" fill="hsl(19, 100%, 59%)" opacity="0.13"></circle><circle r="7.5" cx="398" cy="534" fill="hsl(28, 100%, 59%)" opacity="0.57"></circle><circle r="5.5" cx="463" cy="48" fill="hsl(26, 100%, 59%)" opacity="0.12"></circle><circle r="6" cx="420" cy="566" fill="hsl(27, 100%, 59%)" opacity="0.22"></circle><circle r="8.5" cx="278" cy="263" fill="hsl(28, 100%, 59%)" opacity="0.29"></circle><circle r="8.5" cx="545" cy="176" fill="hsl(20, 100%, 59%)" opacity="0.97"></circle><circle r="8.5" cx="579" cy="131" fill="hsl(21, 100%, 59%)" opacity="0.66"></circle><circle r="3" cx="426" cy="17" fill="hsl(29, 100%, 59%)" opacity="0.76"></circle><circle r="3" cx="287" cy="599" fill="hsl(28, 100%, 59%)" opacity="0.90"></circle><circle r="4.5" cx="138" cy="238" fill="hsl(25, 100%, 59%)" opacity="0.77"></circle><circle r="7.5" cx="31" cy="459" fill="hsl(25, 100%, 59%)" opacity="0.26"></circle><circle r="3" cx="369" cy="46" fill="hsl(32, 100%, 59%)" opacity="0.63"></circle><circle r="6.5" cx="192" cy="403" fill="hsl(25, 100%, 59%)" opacity="0.69"></circle><circle r="8" cx="531" cy="102" fill="hsl(22, 100%, 59%)" opacity="0.97"></circle><circle r="2.5" cx="392" cy="69" fill="hsl(31, 100%, 59%)" opacity="0.21"></circle><circle r="5.5" cx="756" cy="768" fill="hsl(19, 100%, 59%)" opacity="0.81"></circle><circle r="5" cx="83" cy="769" fill="hsl(25, 100%, 59%)" opacity="0.31"></circle><circle r="6" cx="742" cy="576" fill="hsl(19, 100%, 59%)" opacity="0.34"></circle><circle r="2.5" cx="314" cy="792" fill="hsl(28, 100%, 59%)" opacity="0.65"></circle><circle r="8" cx="210" cy="669" fill="hsl(26, 100%, 59%)" opacity="0.18"></circle><circle r="10" cx="205" cy="89" fill="hsl(24, 100%, 59%)" opacity="0.30"></circle><circle r="12" cx="706" cy="346" fill="hsl(19, 100%, 59%)" opacity="0.70"></circle><circle r="7" cx="289" cy="363" fill="hsl(28, 100%, 59%)" opacity="0.96"></circle><circle r="4" cx="314" cy="607" fill="hsl(28, 100%, 59%)" opacity="0.40"></circle><circle r="6.5" cx="18" cy="190" fill="hsl(25, 100%, 59%)" opacity="0.48"></circle><circle r="8" cx="514" cy="141" fill="hsl(22, 100%, 59%)" opacity="0.52"></circle><circle r="6.5" cx="425" cy="202" fill="hsl(26, 100%, 59%)" opacity="0.41"></circle><circle r="8" cx="181" cy="259" fill="hsl(25, 100%, 59%)" opacity="0.96"></circle><circle r="6" cx="448" cy="124" fill="hsl(27, 100%, 59%)" opacity="0.21"></circle><circle r="8" cx="664" cy="456" fill="hsl(19, 100%, 59%)" opacity="0.63"></circle><circle r="8" cx="503" cy="230" fill="hsl(22, 100%, 59%)" opacity="0.70"></circle><circle r="6.5" cx="427" cy="162" fill="hsl(27, 100%, 59%)" opacity="0.17"></circle><circle r="6.5" cx="185" cy="362" fill="hsl(25, 100%, 59%)" opacity="0.39"></circle><circle r="7" cx="782" cy="142" fill="hsl(25, 100%, 59%)" opacity="0.28"></circle><circle r="4.5" cx="252" cy="785" fill="hsl(27, 100%, 59%)" opacity="0.51"></circle><circle r="14.5" cx="585" cy="769" fill="hsl(19, 100%, 59%)" opacity="0.22"></circle><circle r="7.5" cx="583" cy="512" fill="hsl(19, 100%, 59%)" opacity="0.62"></circle><circle r="6" cx="101" cy="503" fill="hsl(25, 100%, 59%)" opacity="0.20"></circle><circle r="8" cx="638" cy="163" fill="hsl(21, 100%, 59%)" opacity="0.62"></circle><circle r="8.5" cx="437" cy="690" fill="hsl(26, 100%, 59%)" opacity="0.91"></circle><circle r="6" cx="159" cy="484" fill="hsl(25, 100%, 59%)" opacity="0.68"></circle><circle r="6.5" cx="461" cy="165" fill="hsl(25, 100%, 59%)" opacity="0.69"></circle><circle r="3.5" cx="294" cy="622" fill="hsl(28, 100%, 59%)" opacity="0.46"></circle><circle r="7.5" cx="494" cy="397" fill="hsl(22, 100%, 59%)" opacity="0.96"></circle><circle r="13.5" cx="491" cy="678" fill="hsl(22, 100%, 59%)" opacity="0.36"></circle><circle r="6.5" cx="38" cy="253" fill="hsl(25, 100%, 59%)" opacity="0.73"></circle><circle r="6" cx="222" cy="773" fill="hsl(26, 100%, 59%)" opacity="0.87"></circle><circle r="10.5" cx="623" cy="713" fill="hsl(18, 100%, 59%)" opacity="0.18"></circle><circle r="7.5" cx="527" cy="259" fill="hsl(20, 100%, 59%)" opacity="0.44"></circle><circle r="5.5" cx="78" cy="401" fill="hsl(25, 100%, 59%)" opacity="0.89"></circle><circle r="8" cx="514" cy="32" fill="hsl(22, 100%, 59%)" opacity="0.58"></circle><circle r="8" cx="218" cy="431" fill="hsl(26, 100%, 59%)" opacity="0.53"></circle><circle r="6" cx="412" cy="759" fill="hsl(27, 100%, 59%)" opacity="0.85"></circle><circle r="10" cx="634" cy="765" fill="hsl(18, 100%, 59%)" opacity="0.40"></circle><circle r="6" cx="102" cy="663" fill="hsl(25, 100%, 59%)" opacity="0.11"></circle><circle r="4" cx="57" cy="576" fill="hsl(25, 100%, 59%)" opacity="0.94"></circle><circle r="5.5" cx="333" cy="381" fill="hsl(28, 100%, 59%)" opacity="0.49"></circle><circle r="8" cx="231" cy="266" fill="hsl(26, 100%, 59%)" opacity="0.55"></circle><circle r="6" cx="124" cy="473" fill="hsl(25, 100%, 59%)" opacity="0.14"></circle><circle r="7.5" cx="334" cy="286" fill="hsl(28, 100%, 59%)" opacity="0.54"></circle><circle r="9" cx="680" cy="496" fill="hsl(19, 100%, 59%)" opacity="0.50"></circle><circle r="5" cx="451" cy="294" fill="hsl(25, 100%, 59%)" opacity="0.45"></circle><circle r="10.5" cx="611" cy="191" fill="hsl(18, 100%, 59%)" opacity="0.49"></circle><circle r="5" cx="67" cy="288" fill="hsl(25, 100%, 59%)" opacity="0.24"></circle><circle r="4.5" cx="18" cy="96" fill="hsl(27, 100%, 59%)" opacity="0.70"></circle><circle r="8.5" cx="242" cy="703" fill="hsl(27, 100%, 59%)" opacity="0.88"></circle><circle r="7.5" cx="708" cy="468" fill="hsl(19, 100%, 59%)" opacity="0.18"></circle><circle r="8.5" cx="713" cy="660" fill="hsl(19, 100%, 59%)" opacity="0.14"></circle><circle r="6.5" cx="461" cy="461" fill="hsl(25, 100%, 59%)" opacity="0.53"></circle><circle r="10.5" cx="737" cy="385" fill="hsl(19, 100%, 59%)" opacity="0.63"></circle><circle r="8.5" cx="666" cy="782" fill="hsl(19, 100%, 59%)" opacity="0.66"></circle><circle r="3.5" cx="397" cy="257" fill="hsl(28, 100%, 59%)" opacity="0.80"></circle><circle r="7" cx="758" cy="639" fill="hsl(19, 100%, 59%)" opacity="0.84"></circle><circle r="6" cx="372" cy="782" fill="hsl(28, 100%, 59%)" opacity="0.16"></circle><circle r="5" cx="356" cy="191" fill="hsl(28, 100%, 59%)" opacity="0.56"></circle><circle r="9.5" cx="581" cy="224" fill="hsl(19, 100%, 59%)" opacity="0.22"></circle><circle r="8" cx="733" cy="217" fill="hsl(19, 100%, 59%)" opacity="0.68"></circle><circle r="6.5" cx="635" cy="579" fill="hsl(18, 100%, 59%)" opacity="0.23"></circle><circle r="5.5" cx="244" cy="128" fill="hsl(26, 100%, 59%)" opacity="0.24"></circle><circle r="4.5" cx="52" cy="186" fill="hsl(26, 100%, 59%)" opacity="0.15"></circle><circle r="4.5" cx="254" cy="652" fill="hsl(27, 100%, 59%)" opacity="0.66"></circle><circle r="9" cx="781" cy="255" fill="hsl(19, 100%, 59%)" opacity="0.35"></circle><circle r="8.5" cx="156" cy="313" fill="hsl(25, 100%, 59%)" opacity="0.13"></circle><circle r="7" cx="730" cy="434" fill="hsl(19, 100%, 59%)" opacity="0.65"></circle><circle r="4.5" cx="10" cy="324" fill="hsl(25, 100%, 59%)" opacity="0.25"></circle><circle r="8.5" cx="502" cy="438" fill="hsl(22, 100%, 59%)" opacity="0.99"></circle><circle r="4" cx="197" cy="790" fill="hsl(25, 100%, 59%)" opacity="0.31"></circle><circle r="7.5" cx="558" cy="553" fill="hsl(19, 100%, 59%)" opacity="0.70"></circle><circle r="4.5" cx="63" cy="166" fill="hsl(26, 100%, 59%)" opacity="0.59"></circle><circle r="7.5" cx="325" cy="157" fill="hsl(29, 100%, 59%)" opacity="0.69"></circle><circle r="7" cx="84" cy="138" fill="hsl(27, 100%, 59%)" opacity="0.15"></circle><circle r="6" cx="283" cy="486" fill="hsl(28, 100%, 59%)" opacity="0.90"></circle><circle r="6.5" cx="375" cy="293" fill="hsl(28, 100%, 59%)" opacity="0.88"></circle><circle r="9" cx="733" cy="179" fill="hsl(21, 100%, 59%)" opacity="0.13"></circle><circle r="5" cx="157" cy="730" fill="hsl(25, 100%, 59%)" opacity="0.87"></circle><circle r="7" cx="319" cy="238" fill="hsl(28, 100%, 59%)" opacity="0.38"></circle><circle r="5.5" cx="350" cy="604" fill="hsl(29, 100%, 59%)" opacity="0.92"></circle><circle r="8.5" cx="494" cy="184" fill="hsl(23, 100%, 59%)" opacity="0.81"></circle><circle r="5.5" cx="552" cy="368" fill="hsl(19, 100%, 59%)" opacity="0.44"></circle><circle r="7" cx="151" cy="378" fill="hsl(25, 100%, 59%)" opacity="0.44"></circle><circle r="7" cx="785" cy="714" fill="hsl(19, 100%, 59%)" opacity="0.73"></circle><circle r="5.5" cx="14" cy="234" fill="hsl(25, 100%, 59%)" opacity="0.60"></circle><circle r="11" cx="629" cy="638" fill="hsl(18, 100%, 59%)" opacity="0.85"></circle><circle r="9" cx="653" cy="60" fill="hsl(24, 100%, 59%)" opacity="0.34"></circle><circle r="5" cx="65" cy="622" fill="hsl(25, 100%, 59%)" opacity="0.94"></circle><circle r="4" cx="13" cy="132" fill="hsl(28, 100%, 59%)" opacity="0.93"></circle><circle r="7.5" cx="256" cy="455" fill="hsl(27, 100%, 59%)" opacity="0.24"></circle><circle r="11.5" cx="688" cy="297" fill="hsl(19, 100%, 59%)" opacity="0.64"></circle><circle r="4" cx="39" cy="636" fill="hsl(25, 100%, 59%)" opacity="0.34"></circle><circle r="6.5" cx="447" cy="650" fill="hsl(25, 100%, 59%)" opacity="0.24"></circle><circle r="5.5" cx="307" cy="659" fill="hsl(28, 100%, 59%)" opacity="0.87"></circle><circle r="3.5" cx="86" cy="519" fill="hsl(25, 100%, 59%)" opacity="0.37"></circle><circle r="7" cx="785" cy="771" fill="hsl(19, 100%, 59%)" opacity="0.90"></circle><circle r="9.5" cx="605" cy="393" fill="hsl(18, 100%, 59%)" opacity="0.74"></circle><circle r="5" cx="336" cy="562" fill="hsl(28, 100%, 59%)" opacity="0.24"></circle><circle r="4.5" cx="312" cy="79" fill="hsl(29, 100%, 59%)" opacity="0.23"></circle><circle r="6" cx="447" cy="583" fill="hsl(25, 100%, 59%)" opacity="0.64"></circle><circle r="3.5" cx="75" cy="788" fill="hsl(25, 100%, 59%)" opacity="0.63"></circle><circle r="3" cx="354" cy="13" fill="hsl(32, 100%, 59%)" opacity="0.45"></circle><circle r="8.5" cx="21" cy="603" fill="hsl(25, 100%, 59%)" opacity="0.26"></circle><circle r="7.5" cx="560" cy="256" fill="hsl(19, 100%, 59%)" opacity="0.27"></circle><circle r="6.5" cx="610" cy="538" fill="hsl(18, 100%, 59%)" opacity="0.60"></circle><circle r="6.5" cx="696" cy="688" fill="hsl(19, 100%, 59%)" opacity="0.97"></circle><circle r="6.5" cx="660" cy="137" fill="hsl(23, 100%, 59%)" opacity="0.48"></circle><circle r="7.5" cx="55" cy="495" fill="hsl(25, 100%, 59%)" opacity="0.64"></circle><circle r="8.5" cx="699" cy="393" fill="hsl(19, 100%, 59%)" opacity="0.54"></circle><circle r="8.5" cx="551" cy="297" fill="hsl(19, 100%, 59%)" opacity="0.15"></circle><circle r="6.5" cx="103" cy="291" fill="hsl(25, 100%, 59%)" opacity="0.41"></circle><circle r="7.5" cx="253" cy="404" fill="hsl(27, 100%, 59%)" opacity="0.90"></circle><circle r="5.5" cx="164" cy="221" fill="hsl(25, 100%, 59%)" opacity="0.86"></circle><circle r="6" cx="73" cy="258" fill="hsl(25, 100%, 59%)" opacity="0.48"></circle><circle r="4.5" cx="72" cy="535" fill="hsl(25, 100%, 59%)" opacity="0.89"></circle><circle r="7" cx="109" cy="609" fill="hsl(25, 100%, 59%)" opacity="0.47"></circle><circle r="5.5" cx="232" cy="632" fill="hsl(26, 100%, 59%)" opacity="0.73"></circle><circle r="7" cx="20" cy="285" fill="hsl(25, 100%, 59%)" opacity="0.64"></circle><circle r="6" cx="585" cy="566" fill="hsl(19, 100%, 59%)" opacity="0.22"></circle><circle r="6.5" cx="52" cy="713" fill="hsl(25, 100%, 59%)" opacity="0.60"></circle><circle r="5.5" cx="104" cy="747" fill="hsl(25, 100%, 59%)" opacity="0.15"></circle><circle r="7" cx="764" cy="608" fill="hsl(19, 100%, 59%)" opacity="0.56"></circle><circle r="8.5" cx="116" cy="92" fill="hsl(24, 100%, 59%)" opacity="0.80"></circle><circle r="9.5" cx="407" cy="474" fill="hsl(27, 100%, 59%)" opacity="0.96"></circle><circle r="7.5" cx="583" cy="92" fill="hsl(22, 100%, 59%)" opacity="0.27"></circle><circle r="6" cx="70" cy="319" fill="hsl(25, 100%, 59%)" opacity="0.63"></circle><circle r="5.5" cx="327" cy="201" fill="hsl(28, 100%, 59%)" opacity="0.54"></circle><circle r="3.5" cx="402" cy="88" fill="hsl(30, 100%, 59%)" opacity="0.44"></circle><circle r="8" cx="639" cy="303" fill="hsl(18, 100%, 59%)" opacity="0.56"></circle><circle r="11" cx="658" cy="355" fill="hsl(19, 100%, 59%)" opacity="0.18"></circle><circle r="9.5" cx="67" cy="79" fill="hsl(25, 100%, 59%)" opacity="0.62"></circle><circle r="7" cx="47" cy="423" fill="hsl(25, 100%, 59%)" opacity="0.39"></circle><circle r="7.5" cx="481" cy="261" fill="hsl(23, 100%, 59%)" opacity="0.38"></circle><circle r="6.5" cx="20" cy="559" fill="hsl(25, 100%, 59%)" opacity="0.22"></circle><circle r="4.5" cx="398" cy="219" fill="hsl(28, 100%, 59%)" opacity="0.77"></circle><circle r="8.5" cx="300" cy="413" fill="hsl(28, 100%, 59%)" opacity="0.29"></circle><circle r="8" cx="599" cy="481" fill="hsl(19, 100%, 59%)" opacity="0.32"></circle><circle r="7.5" cx="612" cy="265" fill="hsl(18, 100%, 59%)" opacity="0.91"></circle><circle r="7" cx="598" cy="310" fill="hsl(19, 100%, 59%)" opacity="0.77"></circle><circle r="6.5" cx="682" cy="712" fill="hsl(19, 100%, 59%)" opacity="0.92"></circle><circle r="6.5" cx="646" cy="684" fill="hsl(18, 100%, 59%)" opacity="0.78"></circle><circle r="6.5" cx="473" cy="309" fill="hsl(24, 100%, 59%)" opacity="0.66"></circle><circle r="3" cx="412" cy="302" fill="hsl(27, 100%, 59%)" opacity="0.38"></circle><circle r="11.5" cx="770" cy="348" fill="hsl(19, 100%, 59%)" opacity="0.96"></circle><circle r="8" cx="585" cy="281" fill="hsl(19, 100%, 59%)" opacity="0.46"></circle><circle r="10" cx="736" cy="304" fill="hsl(19, 100%, 59%)" opacity="0.57"></circle><circle r="6" cx="49" cy="351" fill="hsl(25, 100%, 59%)" opacity="0.20"></circle><circle r="6.5" cx="282" cy="524" fill="hsl(28, 100%, 59%)" opacity="0.44"></circle><circle r="5.5" cx="15" cy="719" fill="hsl(25, 100%, 59%)" opacity="0.85"></circle><circle r="5" cx="778" cy="15" fill="hsl(27, 100%, 59%)" opacity="0.40"></circle><circle r="9.5" cx="553" cy="64" fill="hsl(22, 100%, 59%)" opacity="0.96"></circle><circle r="5.5" cx="262" cy="581" fill="hsl(27, 100%, 59%)" opacity="0.25"></circle><circle r="7" cx="785" cy="673" fill="hsl(19, 100%, 59%)" opacity="0.54"></circle><circle r="4.5" cx="256" cy="336" fill="hsl(27, 100%, 59%)" opacity="0.37"></circle><circle r="6.5" cx="477" cy="17" fill="hsl(25, 100%, 59%)" opacity="0.55"></circle><circle r="4.5" cx="413" cy="324" fill="hsl(27, 100%, 59%)" opacity="0.37"></circle><circle r="2.5" cx="272" cy="793" fill="hsl(27, 100%, 59%)" opacity="0.70"></circle><circle r="8" cx="662" cy="19" fill="hsl(21, 100%, 59%)" opacity="0.32"></circle><circle r="4.5" cx="49" cy="661" fill="hsl(25, 100%, 59%)" opacity="0.21"></circle><circle r="10.5" cx="531" cy="630" fill="hsl(20, 100%, 59%)" opacity="0.54"></circle><circle r="6.5" cx="119" cy="326" fill="hsl(25, 100%, 59%)" opacity="0.69"></circle><circle r="8.5" cx="458" cy="381" fill="hsl(25, 100%, 59%)" opacity="0.42"></circle><circle r="6" cx="140" cy="510" fill="hsl(25, 100%, 59%)" opacity="0.69"></circle><circle r="6.5" cx="400" cy="602" fill="hsl(28, 100%, 59%)" opacity="0.69"></circle><circle r="8.5" cx="113" cy="45" fill="hsl(21, 100%, 59%)" opacity="0.17"></circle><circle r="9.5" cx="670" cy="660" fill="hsl(19, 100%, 59%)" opacity="0.16"></circle><circle r="7" cx="552" cy="340" fill="hsl(19, 100%, 59%)" opacity="0.94"></circle><circle r="6" cx="130" cy="427" fill="hsl(25, 100%, 59%)" opacity="0.30"></circle><circle r="6.5" cx="365" cy="707" fill="hsl(28, 100%, 59%)" opacity="0.44"></circle><circle r="8.5" cx="401" cy="394" fill="hsl(27, 100%, 59%)" opacity="0.15"></circle><circle r="8.5" cx="635" cy="480" fill="hsl(18, 100%, 59%)" opacity="0.21"></circle><circle r="9.5" cx="779" cy="491" fill="hsl(19, 100%, 59%)" opacity="0.22"></circle><circle r="5.5" cx="481" cy="139" fill="hsl(24, 100%, 59%)" opacity="0.75"></circle><circle r="5.5" cx="164" cy="425" fill="hsl(25, 100%, 59%)" opacity="0.98"></circle><circle r="9.5" cx="779" cy="198" fill="hsl(19, 100%, 59%)" opacity="0.61"></circle><circle r="6.5" cx="327" cy="738" fill="hsl(28, 100%, 59%)" opacity="0.54"></circle><circle r="5.5" cx="124" cy="357" fill="hsl(25, 100%, 59%)" opacity="0.70"></circle><circle r="4" cx="354" cy="70" fill="hsl(31, 100%, 59%)" opacity="0.41"></circle><circle r="5.5" cx="223" cy="13" fill="hsl(22, 100%, 59%)" opacity="0.14"></circle><circle r="6.5" cx="249" cy="551" fill="hsl(27, 100%, 59%)" opacity="0.37"></circle><circle r="7" cx="637" cy="416" fill="hsl(18, 100%, 59%)" opacity="0.76"></circle><circle r="5" cx="156" cy="453" fill="hsl(25, 100%, 59%)" opacity="0.12"></circle><circle r="8.5" cx="703" cy="746" fill="hsl(19, 100%, 59%)" opacity="0.71"></circle><circle r="3" cx="77" cy="355" fill="hsl(25, 100%, 59%)" opacity="0.41"></circle><circle r="7.5" cx="465" cy="210" fill="hsl(24, 100%, 59%)" opacity="0.29"></circle><circle r="6" cx="459" cy="428" fill="hsl(25, 100%, 59%)" opacity="0.45"></circle><circle r="6" cx="618" cy="135" fill="hsl(22, 100%, 59%)" opacity="0.78"></circle><circle r="5.5" cx="420" cy="717" fill="hsl(27, 100%, 59%)" opacity="0.97"></circle><circle r="5" cx="420" cy="111" fill="hsl(29, 100%, 59%)" opacity="0.63"></circle><circle r="7.5" cx="676" cy="215" fill="hsl(19, 100%, 59%)" opacity="0.90"></circle><circle r="6" cx="218" cy="522" fill="hsl(26, 100%, 59%)" opacity="0.57"></circle><circle r="6" cx="117" cy="12" fill="hsl(17, 100%, 59%)" opacity="0.20"></circle><circle r="9" cx="477" cy="616" fill="hsl(23, 100%, 59%)" opacity="0.48"></circle><circle r="7" cx="485" cy="545" fill="hsl(23, 100%, 59%)" opacity="0.71"></circle><circle r="7" cx="260" cy="96" fill="hsl(26, 100%, 59%)" opacity="0.27"></circle><circle r="5" cx="12" cy="777" fill="hsl(25, 100%, 59%)" opacity="0.71"></circle><circle r="6.5" cx="571" cy="420" fill="hsl(19, 100%, 59%)" opacity="0.92"></circle><circle r="6" cx="740" cy="42" fill="hsl(27, 100%, 59%)" opacity="0.42"></circle><circle r="7" cx="13" cy="493" fill="hsl(25, 100%, 59%)" opacity="0.41"></circle><circle r="8.5" cx="530" cy="408" fill="hsl(20, 100%, 59%)" opacity="0.80"></circle><circle r="4" cx="12" cy="685" fill="hsl(25, 100%, 59%)" opacity="0.92"></circle><circle r="6.5" cx="528" cy="328" fill="hsl(20, 100%, 59%)" opacity="0.74"></circle><circle r="8" cx="197" cy="471" fill="hsl(25, 100%, 59%)" opacity="0.26"></circle><circle r="5" cx="180" cy="772" fill="hsl(25, 100%, 59%)" opacity="0.67"></circle><circle r="8" cx="545" cy="18" fill="hsl(20, 100%, 59%)" opacity="0.32"></circle><circle r="10" cx="778" cy="300" fill="hsl(19, 100%, 59%)" opacity="0.89"></circle><circle r="6" cx="538" cy="479" fill="hsl(20, 100%, 59%)" opacity="0.83"></circle><circle r="13" cx="524" cy="740" fill="hsl(21, 100%, 59%)" opacity="0.73"></circle><circle r="3.5" cx="411" cy="241" fill="hsl(27, 100%, 59%)" opacity="0.39"></circle></svg>