<svg xmlns="http://www.w3.org/2000/svg" version="1.1" xmlns:xlink="http://www.w3.org/1999/xlink" xmlns:svgjs="http://svgjs.dev/svgjs" viewBox="0 0 800 800"><defs><linearGradient gradientTransform="rotate(270)" x1="50%" y1="0%" x2="50%" y2="100%" id="sssquiggly-grad"><stop stop-color="hsl(206, 75%, 49%)" stop-opacity="1" offset="0%"></stop><stop stop-color="hsl(331, 90%, 56%)" stop-opacity="1" offset="100%"></stop></linearGradient></defs><g stroke-width="2" stroke="url(#sssquiggly-grad)" fill="none" stroke-linecap="round" transform="matrix(1,0,0,1,0,53.35156440734863)"><path d="M10,10C21.805555555555557,12.916666666666668,40.97222222222223,31.708333333333336,66.66666666666667,24C92.36111111111111,16.291666666666664,105.55555555555557,-28.666666666666668,133.33333333333334,-27C161.11111111111111,-25.333333333333332,172.22222222222223,32.208333333333336,200,32C227.77777777777777,31.791666666666668,238.8888888888889,-27.583333333333332,266.6666666666667,-28C294.44444444444446,-28.416666666666668,305.5555555555556,28.125,333.33333333333337,30C361.11111111111114,31.875,372.22222222222223,-20.875,400,-19C427.77777777777777,-17.125,438.8888888888889,39.208333333333336,466.6666666666667,39C494.44444444444446,38.791666666666664,505.5555555555556,-21.875,533.3333333333334,-20C561.1111111111111,-18.125,572.2222222222222,45.916666666666664,600,48C627.7777777777778,50.083333333333336,638.8888888888889,-11.666666666666666,666.6666666666667,-10C694.4444444444446,-8.333333333333334,707.6388888888889,51.833333333333336,733.3333333333334,56C759.0277777777778,60.166666666666664,778.1944444444445,19.583333333333336,790,10"></path><path d="M10,10C21.805555555555557,12.916666666666668,40.97222222222223,31.708333333333336,66.66666666666667,24C92.36111111111111,16.291666666666664,105.55555555555557,-28.666666666666668,133.33333333333334,-27C161.11111111111111,-25.333333333333332,172.22222222222223,32.208333333333336,200,32C227.77777777777777,31.791666666666668,238.8888888888889,-27.583333333333332,266.6666666666667,-28C294.44444444444446,-28.416666666666668,305.5555555555556,28.125,333.33333333333337,30C361.11111111111114,31.875,372.22222222222223,-20.875,400,-19C427.77777777777777,-17.125,438.8888888888889,39.208333333333336,466.6666666666667,39C494.44444444444446,38.791666666666664,505.5555555555556,-21.875,533.3333333333334,-20C561.1111111111111,-18.125,572.2222222222222,45.916666666666664,600,48C627.7777777777778,50.083333333333336,638.8888888888889,-11.666666666666666,666.6666666666667,-10C694.4444444444446,-8.333333333333334,707.6388888888889,51.833333333333336,733.3333333333334,56C759.0277777777778,60.166666666666664,778.1944444444445,19.583333333333336,790,10" transform="matrix(1,0,0,1,0,665)"></path><path d="M10,10C21.805555555555557,12.916666666666668,40.97222222222223,31.708333333333336,66.66666666666667,24C92.36111111111111,16.291666666666664,105.55555555555557,-28.666666666666668,133.33333333333334,-27C161.11111111111111,-25.333333333333332,172.22222222222223,32.208333333333336,200,32C227.77777777777777,31.791666666666668,238.8888888888889,-27.583333333333332,266.6666666666667,-28C294.44444444444446,-28.416666666666668,305.5555555555556,28.125,333.33333333333337,30C361.11111111111114,31.875,372.22222222222223,-20.875,400,-19C427.77777777777777,-17.125,438.8888888888889,39.208333333333336,466.6666666666667,39C494.44444444444446,38.791666666666664,505.5555555555556,-21.875,533.3333333333334,-20C561.1111111111111,-18.125,572.2222222222222,45.916666666666664,600,48C627.7777777777778,50.083333333333336,638.8888888888889,-11.666666666666666,666.6666666666667,-10C694.4444444444446,-8.333333333333334,707.6388888888889,51.833333333333336,733.3333333333334,56C759.0277777777778,60.166666666666664,778.1944444444445,19.583333333333336,790,10" transform="matrix(1,0,0,1,0,630)"></path><path d="M10,10C21.805555555555557,12.916666666666668,40.97222222222223,31.708333333333336,66.66666666666667,24C92.36111111111111,16.291666666666664,105.55555555555557,-28.666666666666668,133.33333333333334,-27C161.11111111111111,-25.333333333333332,172.22222222222223,32.208333333333336,200,32C227.77777777777777,31.791666666666668,238.8888888888889,-27.583333333333332,266.6666666666667,-28C294.44444444444446,-28.416666666666668,305.5555555555556,28.125,333.33333333333337,30C361.11111111111114,31.875,372.22222222222223,-20.875,400,-19C427.77777777777777,-17.125,438.8888888888889,39.208333333333336,466.6666666666667,39C494.44444444444446,38.791666666666664,505.5555555555556,-21.875,533.3333333333334,-20C561.1111111111111,-18.125,572.2222222222222,45.916666666666664,600,48C627.7777777777778,50.083333333333336,638.8888888888889,-11.666666666666666,666.6666666666667,-10C694.4444444444446,-8.333333333333334,707.6388888888889,51.833333333333336,733.3333333333334,56C759.0277777777778,60.166666666666664,778.1944444444445,19.583333333333336,790,10" transform="matrix(1,0,0,1,0,595)"></path><path d="M10,10C21.805555555555557,12.916666666666668,40.97222222222223,31.708333333333336,66.66666666666667,24C92.36111111111111,16.291666666666664,105.55555555555557,-28.666666666666668,133.33333333333334,-27C161.11111111111111,-25.333333333333332,172.22222222222223,32.208333333333336,200,32C227.77777777777777,31.791666666666668,238.8888888888889,-27.583333333333332,266.6666666666667,-28C294.44444444444446,-28.416666666666668,305.5555555555556,28.125,333.33333333333337,30C361.11111111111114,31.875,372.22222222222223,-20.875,400,-19C427.77777777777777,-17.125,438.8888888888889,39.208333333333336,466.6666666666667,39C494.44444444444446,38.791666666666664,505.5555555555556,-21.875,533.3333333333334,-20C561.1111111111111,-18.125,572.2222222222222,45.916666666666664,600,48C627.7777777777778,50.083333333333336,638.8888888888889,-11.666666666666666,666.6666666666667,-10C694.4444444444446,-8.333333333333334,707.6388888888889,51.833333333333336,733.3333333333334,56C759.0277777777778,60.166666666666664,778.1944444444445,19.583333333333336,790,10" transform="matrix(1,0,0,1,0,560)"></path><path d="M10,10C21.805555555555557,12.916666666666668,40.97222222222223,31.708333333333336,66.66666666666667,24C92.36111111111111,16.291666666666664,105.55555555555557,-28.666666666666668,133.33333333333334,-27C161.11111111111111,-25.333333333333332,172.22222222222223,32.208333333333336,200,32C227.77777777777777,31.791666666666668,238.8888888888889,-27.583333333333332,266.6666666666667,-28C294.44444444444446,-28.416666666666668,305.5555555555556,28.125,333.33333333333337,30C361.11111111111114,31.875,372.22222222222223,-20.875,400,-19C427.77777777777777,-17.125,438.8888888888889,39.208333333333336,466.6666666666667,39C494.44444444444446,38.791666666666664,505.5555555555556,-21.875,533.3333333333334,-20C561.1111111111111,-18.125,572.2222222222222,45.916666666666664,600,48C627.7777777777778,50.083333333333336,638.8888888888889,-11.666666666666666,666.6666666666667,-10C694.4444444444446,-8.333333333333334,707.6388888888889,51.833333333333336,733.3333333333334,56C759.0277777777778,60.166666666666664,778.1944444444445,19.583333333333336,790,10" transform="matrix(1,0,0,1,0,525)"></path><path d="M10,10C21.805555555555557,12.916666666666668,40.97222222222223,31.708333333333336,66.66666666666667,24C92.36111111111111,16.291666666666664,105.55555555555557,-28.666666666666668,133.33333333333334,-27C161.11111111111111,-25.333333333333332,172.22222222222223,32.208333333333336,200,32C227.77777777777777,31.791666666666668,238.8888888888889,-27.583333333333332,266.6666666666667,-28C294.44444444444446,-28.416666666666668,305.5555555555556,28.125,333.33333333333337,30C361.11111111111114,31.875,372.22222222222223,-20.875,400,-19C427.77777777777777,-17.125,438.8888888888889,39.208333333333336,466.6666666666667,39C494.44444444444446,38.791666666666664,505.5555555555556,-21.875,533.3333333333334,-20C561.1111111111111,-18.125,572.2222222222222,45.916666666666664,600,48C627.7777777777778,50.083333333333336,638.8888888888889,-11.666666666666666,666.6666666666667,-10C694.4444444444446,-8.333333333333334,707.6388888888889,51.833333333333336,733.3333333333334,56C759.0277777777778,60.166666666666664,778.1944444444445,19.583333333333336,790,10" transform="matrix(1,0,0,1,0,490)"></path><path d="M10,10C21.805555555555557,12.916666666666668,40.97222222222223,31.708333333333336,66.66666666666667,24C92.36111111111111,16.291666666666664,105.55555555555557,-28.666666666666668,133.33333333333334,-27C161.11111111111111,-25.333333333333332,172.22222222222223,32.208333333333336,200,32C227.77777777777777,31.791666666666668,238.8888888888889,-27.583333333333332,266.6666666666667,-28C294.44444444444446,-28.416666666666668,305.5555555555556,28.125,333.33333333333337,30C361.11111111111114,31.875,372.22222222222223,-20.875,400,-19C427.77777777777777,-17.125,438.8888888888889,39.208333333333336,466.6666666666667,39C494.44444444444446,38.791666666666664,505.5555555555556,-21.875,533.3333333333334,-20C561.1111111111111,-18.125,572.2222222222222,45.916666666666664,600,48C627.7777777777778,50.083333333333336,638.8888888888889,-11.666666666666666,666.6666666666667,-10C694.4444444444446,-8.333333333333334,707.6388888888889,51.833333333333336,733.3333333333334,56C759.0277777777778,60.166666666666664,778.1944444444445,19.583333333333336,790,10" transform="matrix(1,0,0,1,0,455)"></path><path d="M10,10C21.805555555555557,12.916666666666668,40.97222222222223,31.708333333333336,66.66666666666667,24C92.36111111111111,16.291666666666664,105.55555555555557,-28.666666666666668,133.33333333333334,-27C161.11111111111111,-25.333333333333332,172.22222222222223,32.208333333333336,200,32C227.77777777777777,31.791666666666668,238.8888888888889,-27.583333333333332,266.6666666666667,-28C294.44444444444446,-28.416666666666668,305.5555555555556,28.125,333.33333333333337,30C361.11111111111114,31.875,372.22222222222223,-20.875,400,-19C427.77777777777777,-17.125,438.8888888888889,39.208333333333336,466.6666666666667,39C494.44444444444446,38.791666666666664,505.5555555555556,-21.875,533.3333333333334,-20C561.1111111111111,-18.125,572.2222222222222,45.916666666666664,600,48C627.7777777777778,50.083333333333336,638.8888888888889,-11.666666666666666,666.6666666666667,-10C694.4444444444446,-8.333333333333334,707.6388888888889,51.833333333333336,733.3333333333334,56C759.0277777777778,60.166666666666664,778.1944444444445,19.583333333333336,790,10" transform="matrix(1,0,0,1,0,420)"></path><path d="M10,10C21.805555555555557,12.916666666666668,40.97222222222223,31.708333333333336,66.66666666666667,24C92.36111111111111,16.291666666666664,105.55555555555557,-28.666666666666668,133.33333333333334,-27C161.11111111111111,-25.333333333333332,172.22222222222223,32.208333333333336,200,32C227.77777777777777,31.791666666666668,238.8888888888889,-27.583333333333332,266.6666666666667,-28C294.44444444444446,-28.416666666666668,305.5555555555556,28.125,333.33333333333337,30C361.11111111111114,31.875,372.22222222222223,-20.875,400,-19C427.77777777777777,-17.125,438.8888888888889,39.208333333333336,466.6666666666667,39C494.44444444444446,38.791666666666664,505.5555555555556,-21.875,533.3333333333334,-20C561.1111111111111,-18.125,572.2222222222222,45.916666666666664,600,48C627.7777777777778,50.083333333333336,638.8888888888889,-11.666666666666666,666.6666666666667,-10C694.4444444444446,-8.333333333333334,707.6388888888889,51.833333333333336,733.3333333333334,56C759.0277777777778,60.166666666666664,778.1944444444445,19.583333333333336,790,10" transform="matrix(1,0,0,1,0,385)"></path><path d="M10,10C21.805555555555557,12.916666666666668,40.97222222222223,31.708333333333336,66.66666666666667,24C92.36111111111111,16.291666666666664,105.55555555555557,-28.666666666666668,133.33333333333334,-27C161.11111111111111,-25.333333333333332,172.22222222222223,32.208333333333336,200,32C227.77777777777777,31.791666666666668,238.8888888888889,-27.583333333333332,266.6666666666667,-28C294.44444444444446,-28.416666666666668,305.5555555555556,28.125,333.33333333333337,30C361.11111111111114,31.875,372.22222222222223,-20.875,400,-19C427.77777777777777,-17.125,438.8888888888889,39.208333333333336,466.6666666666667,39C494.44444444444446,38.791666666666664,505.5555555555556,-21.875,533.3333333333334,-20C561.1111111111111,-18.125,572.2222222222222,45.916666666666664,600,48C627.7777777777778,50.083333333333336,638.8888888888889,-11.666666666666666,666.6666666666667,-10C694.4444444444446,-8.333333333333334,707.6388888888889,51.833333333333336,733.3333333333334,56C759.0277777777778,60.166666666666664,778.1944444444445,19.583333333333336,790,10" transform="matrix(1,0,0,1,0,350)"></path><path d="M10,10C21.805555555555557,12.916666666666668,40.97222222222223,31.708333333333336,66.66666666666667,24C92.36111111111111,16.291666666666664,105.55555555555557,-28.666666666666668,133.33333333333334,-27C161.11111111111111,-25.333333333333332,172.22222222222223,32.208333333333336,200,32C227.77777777777777,31.791666666666668,238.8888888888889,-27.583333333333332,266.6666666666667,-28C294.44444444444446,-28.416666666666668,305.5555555555556,28.125,333.33333333333337,30C361.11111111111114,31.875,372.22222222222223,-20.875,400,-19C427.77777777777777,-17.125,438.8888888888889,39.208333333333336,466.6666666666667,39C494.44444444444446,38.791666666666664,505.5555555555556,-21.875,533.3333333333334,-20C561.1111111111111,-18.125,572.2222222222222,45.916666666666664,600,48C627.7777777777778,50.083333333333336,638.8888888888889,-11.666666666666666,666.6666666666667,-10C694.4444444444446,-8.333333333333334,707.6388888888889,51.833333333333336,733.3333333333334,56C759.0277777777778,60.166666666666664,778.1944444444445,19.583333333333336,790,10" transform="matrix(1,0,0,1,0,315)"></path><path d="M10,10C21.805555555555557,12.916666666666668,40.97222222222223,31.708333333333336,66.66666666666667,24C92.36111111111111,16.291666666666664,105.55555555555557,-28.666666666666668,133.33333333333334,-27C161.11111111111111,-25.333333333333332,172.22222222222223,32.208333333333336,200,32C227.77777777777777,31.791666666666668,238.8888888888889,-27.583333333333332,266.6666666666667,-28C294.44444444444446,-28.416666666666668,305.5555555555556,28.125,333.33333333333337,30C361.11111111111114,31.875,372.22222222222223,-20.875,400,-19C427.77777777777777,-17.125,438.8888888888889,39.208333333333336,466.6666666666667,39C494.44444444444446,38.791666666666664,505.5555555555556,-21.875,533.3333333333334,-20C561.1111111111111,-18.125,572.2222222222222,45.916666666666664,600,48C627.7777777777778,50.083333333333336,638.8888888888889,-11.666666666666666,666.6666666666667,-10C694.4444444444446,-8.333333333333334,707.6388888888889,51.833333333333336,733.3333333333334,56C759.0277777777778,60.166666666666664,778.1944444444445,19.583333333333336,790,10" transform="matrix(1,0,0,1,0,280)"></path><path d="M10,10C21.805555555555557,12.916666666666668,40.97222222222223,31.708333333333336,66.66666666666667,24C92.36111111111111,16.291666666666664,105.55555555555557,-28.666666666666668,133.33333333333334,-27C161.11111111111111,-25.333333333333332,172.22222222222223,32.208333333333336,200,32C227.77777777777777,31.791666666666668,238.8888888888889,-27.583333333333332,266.6666666666667,-28C294.44444444444446,-28.416666666666668,305.5555555555556,28.125,333.33333333333337,30C361.11111111111114,31.875,372.22222222222223,-20.875,400,-19C427.77777777777777,-17.125,438.8888888888889,39.208333333333336,466.6666666666667,39C494.44444444444446,38.791666666666664,505.5555555555556,-21.875,533.3333333333334,-20C561.1111111111111,-18.125,572.2222222222222,45.916666666666664,600,48C627.7777777777778,50.083333333333336,638.8888888888889,-11.666666666666666,666.6666666666667,-10C694.4444444444446,-8.333333333333334,707.6388888888889,51.833333333333336,733.3333333333334,56C759.0277777777778,60.166666666666664,778.1944444444445,19.583333333333336,790,10" transform="matrix(1,0,0,1,0,245)"></path><path d="M10,10C21.805555555555557,12.916666666666668,40.97222222222223,31.708333333333336,66.66666666666667,24C92.36111111111111,16.291666666666664,105.55555555555557,-28.666666666666668,133.33333333333334,-27C161.11111111111111,-25.333333333333332,172.22222222222223,32.208333333333336,200,32C227.77777777777777,31.791666666666668,238.8888888888889,-27.583333333333332,266.6666666666667,-28C294.44444444444446,-28.416666666666668,305.5555555555556,28.125,333.33333333333337,30C361.11111111111114,31.875,372.22222222222223,-20.875,400,-19C427.77777777777777,-17.125,438.8888888888889,39.208333333333336,466.6666666666667,39C494.44444444444446,38.791666666666664,505.5555555555556,-21.875,533.3333333333334,-20C561.1111111111111,-18.125,572.2222222222222,45.916666666666664,600,48C627.7777777777778,50.083333333333336,638.8888888888889,-11.666666666666666,666.6666666666667,-10C694.4444444444446,-8.333333333333334,707.6388888888889,51.833333333333336,733.3333333333334,56C759.0277777777778,60.166666666666664,778.1944444444445,19.583333333333336,790,10" transform="matrix(1,0,0,1,0,210)"></path><path d="M10,10C21.805555555555557,12.916666666666668,40.97222222222223,31.708333333333336,66.66666666666667,24C92.36111111111111,16.291666666666664,105.55555555555557,-28.666666666666668,133.33333333333334,-27C161.11111111111111,-25.333333333333332,172.22222222222223,32.208333333333336,200,32C227.77777777777777,31.791666666666668,238.8888888888889,-27.583333333333332,266.6666666666667,-28C294.44444444444446,-28.416666666666668,305.5555555555556,28.125,333.33333333333337,30C361.11111111111114,31.875,372.22222222222223,-20.875,400,-19C427.77777777777777,-17.125,438.8888888888889,39.208333333333336,466.6666666666667,39C494.44444444444446,38.791666666666664,505.5555555555556,-21.875,533.3333333333334,-20C561.1111111111111,-18.125,572.2222222222222,45.916666666666664,600,48C627.7777777777778,50.083333333333336,638.8888888888889,-11.666666666666666,666.6666666666667,-10C694.4444444444446,-8.333333333333334,707.6388888888889,51.833333333333336,733.3333333333334,56C759.0277777777778,60.166666666666664,778.1944444444445,19.583333333333336,790,10" transform="matrix(1,0,0,1,0,175)"></path><path d="M10,10C21.805555555555557,12.916666666666668,40.97222222222223,31.708333333333336,66.66666666666667,24C92.36111111111111,16.291666666666664,105.55555555555557,-28.666666666666668,133.33333333333334,-27C161.11111111111111,-25.333333333333332,172.22222222222223,32.208333333333336,200,32C227.77777777777777,31.791666666666668,238.8888888888889,-27.583333333333332,266.6666666666667,-28C294.44444444444446,-28.416666666666668,305.5555555555556,28.125,333.33333333333337,30C361.11111111111114,31.875,372.22222222222223,-20.875,400,-19C427.77777777777777,-17.125,438.8888888888889,39.208333333333336,466.6666666666667,39C494.44444444444446,38.791666666666664,505.5555555555556,-21.875,533.3333333333334,-20C561.1111111111111,-18.125,572.2222222222222,45.916666666666664,600,48C627.7777777777778,50.083333333333336,638.8888888888889,-11.666666666666666,666.6666666666667,-10C694.4444444444446,-8.333333333333334,707.6388888888889,51.833333333333336,733.3333333333334,56C759.0277777777778,60.166666666666664,778.1944444444445,19.583333333333336,790,10" transform="matrix(1,0,0,1,0,140)"></path><path d="M10,10C21.805555555555557,12.916666666666668,40.97222222222223,31.708333333333336,66.66666666666667,24C92.36111111111111,16.291666666666664,105.55555555555557,-28.666666666666668,133.33333333333334,-27C161.11111111111111,-25.333333333333332,172.22222222222223,32.208333333333336,200,32C227.77777777777777,31.791666666666668,238.8888888888889,-27.583333333333332,266.6666666666667,-28C294.44444444444446,-28.416666666666668,305.5555555555556,28.125,333.33333333333337,30C361.11111111111114,31.875,372.22222222222223,-20.875,400,-19C427.77777777777777,-17.125,438.8888888888889,39.208333333333336,466.6666666666667,39C494.44444444444446,38.791666666666664,505.5555555555556,-21.875,533.3333333333334,-20C561.1111111111111,-18.125,572.2222222222222,45.916666666666664,600,48C627.7777777777778,50.083333333333336,638.8888888888889,-11.666666666666666,666.6666666666667,-10C694.4444444444446,-8.333333333333334,707.6388888888889,51.833333333333336,733.3333333333334,56C759.0277777777778,60.166666666666664,778.1944444444445,19.583333333333336,790,10" transform="matrix(1,0,0,1,0,105)"></path><path d="M10,10C21.805555555555557,12.916666666666668,40.97222222222223,31.708333333333336,66.66666666666667,24C92.36111111111111,16.291666666666664,105.55555555555557,-28.666666666666668,133.33333333333334,-27C161.11111111111111,-25.333333333333332,172.22222222222223,32.208333333333336,200,32C227.77777777777777,31.791666666666668,238.8888888888889,-27.583333333333332,266.6666666666667,-28C294.44444444444446,-28.416666666666668,305.5555555555556,28.125,333.33333333333337,30C361.11111111111114,31.875,372.22222222222223,-20.875,400,-19C427.77777777777777,-17.125,438.8888888888889,39.208333333333336,466.6666666666667,39C494.44444444444446,38.791666666666664,505.5555555555556,-21.875,533.3333333333334,-20C561.1111111111111,-18.125,572.2222222222222,45.916666666666664,600,48C627.7777777777778,50.083333333333336,638.8888888888889,-11.666666666666666,666.6666666666667,-10C694.4444444444446,-8.333333333333334,707.6388888888889,51.833333333333336,733.3333333333334,56C759.0277777777778,60.166666666666664,778.1944444444445,19.583333333333336,790,10" transform="matrix(1,0,0,1,0,70)"></path><path d="M10,10C21.805555555555557,12.916666666666668,40.97222222222223,31.708333333333336,66.66666666666667,24C92.36111111111111,16.291666666666664,105.55555555555557,-28.666666666666668,133.33333333333334,-27C161.11111111111111,-25.333333333333332,172.22222222222223,32.208333333333336,200,32C227.77777777777777,31.791666666666668,238.8888888888889,-27.583333333333332,266.6666666666667,-28C294.44444444444446,-28.416666666666668,305.5555555555556,28.125,333.33333333333337,30C361.11111111111114,31.875,372.22222222222223,-20.875,400,-19C427.77777777777777,-17.125,438.8888888888889,39.208333333333336,466.6666666666667,39C494.44444444444446,38.791666666666664,505.5555555555556,-21.875,533.3333333333334,-20C561.1111111111111,-18.125,572.2222222222222,45.916666666666664,600,48C627.7777777777778,50.083333333333336,638.8888888888889,-11.666666666666666,666.6666666666667,-10C694.4444444444446,-8.333333333333334,707.6388888888889,51.833333333333336,733.3333333333334,56C759.0277777777778,60.166666666666664,778.1944444444445,19.583333333333336,790,10" transform="matrix(1,0,0,1,0,35)"></path></g></svg>